PathFileType	4	(X/Y/Z)	E:/New_biomech_experiments/Elbow Flexion/Shreyas_25_06_24_elbow_flexion/Session 2024-06-26/Shreyas_ElbFlex_pp_t02_26_06_24.trc	
DataRate	CameraRate	NumFrames	NumMarkers	Units	OrigDataRate	OrigDataStartFrame	OrigNumFrames	
120.00	120.00	22	19	m	120.00	2417	4832	
Frame#	Time	LFHD			LBHD			T10			C7			RBHD			PRSHO			RSHO			STRN			RFHD			CLAV			RWRA			RWRB			ARSHO			MRELB			RFRM			RHAND			RELB			RUPA			MRHAND			
		X1	Y1	Z1	X2	Y2	Z2	X3	Y3	Z3	X4	Y4	Z4	X5	Y5	Z5	X6	Y6	Z6	X7	Y7	Z7	X8	Y8	Z8	X9	Y9	Z9	X10	Y10	Z10	X11	Y11	Z11	X12	Y12	Z12	X13	Y13	Z13	X14	Y14	Z14	X15	Y15	Z15	X16	Y16	Z16	X17	Y17	Z17	X18	Y18	Z18	X19	Y19	Z19	

2417	20.133	0.06368	1.83835	-0.06832	-0.03889	1.73396	-0.08606	-0.08688	1.33743	-0.03698	-0.06184	1.54820	-0.02470	-0.05485	1.75562	0.05001	-0.09515	1.45225	0.10253	0.02156	1.50412	0.18903	0.17071	1.34192	-0.01856	0.04639	1.82480	0.05885	0.13413	1.46652	-0.01384	0.19244	0.96374	0.17248	0.17830	0.94618	0.26983	0.10918	1.45854	0.09729	-0.00896	1.13653	0.14267	0.11515	1.06159	0.25584	0.28109	0.86411	0.17254	0.01818	1.17735	0.25040	0.01314	1.30825	0.23127	0.23030	0.86196	0.28247 
2418	20.142	0.06381	1.83835	-0.06834	-0.03879	1.73402	-0.08606	-0.08687	1.33745	-0.03700	-0.06179	1.54821	-0.02472	-0.05474	1.75565	0.05000	-0.09511	1.45227	0.10251	0.02163	1.50409	0.18899	0.17073	1.34190	-0.01860	0.04653	1.82480	0.05884	0.13418	1.46652	-0.01386	0.19274	0.96410	0.17235	0.17866	0.94651	0.26969	0.10923	1.45853	0.09726	-0.00896	1.13653	0.14264	0.11529	1.06180	0.25576	0.28158	0.86459	0.17243	0.01816	1.17736	0.25037	0.01315	1.30824	0.23124	0.23080	0.86239	0.28235 
2419	20.150	0.06395	1.83835	-0.06836	-0.03870	1.73407	-0.08607	-0.08685	1.33746	-0.03703	-0.06174	1.54823	-0.02475	-0.05462	1.75568	0.04999	-0.09506	1.45229	0.10249	0.02171	1.50407	0.18895	0.17075	1.34188	-0.01863	0.04668	1.82480	0.05882	0.13423	1.46653	-0.01387	0.19304	0.96447	0.17223	0.17902	0.94684	0.26956	0.10927	1.45852	0.09724	-0.00896	1.13653	0.14261	0.11543	1.06201	0.25568	0.28206	0.86508	0.17231	0.01813	1.17738	0.25033	0.01316	1.30824	0.23121	0.23131	0.86284	0.28223 
2420	20.158	0.06409	1.83836	-0.06838	-0.03860	1.73412	-0.08607	-0.08683	1.33748	-0.03705	-0.06169	1.54826	-0.02478	-0.05450	1.75572	0.04998	-0.09502	1.45230	0.10246	0.02179	1.50404	0.18891	0.17078	1.34186	-0.01867	0.04683	1.82480	0.05880	0.13428	1.46654	-0.01387	0.19334	0.96484	0.17210	0.17938	0.94719	0.26943	0.10932	1.45850	0.09721	-0.00896	1.13653	0.14258	0.11556	1.06223	0.25561	0.28254	0.86557	0.17221	0.01809	1.17739	0.25030	0.01316	1.30824	0.23118	0.23182	0.86329	0.28212 
2421	20.167	0.06423	1.83836	-0.06840	-0.03850	1.73417	-0.08607	-0.08681	1.33750	-0.03708	-0.06164	1.54829	-0.02482	-0.05438	1.75575	0.04997	-0.09498	1.45232	0.10244	0.02188	1.50401	0.18886	0.17080	1.34184	-0.01871	0.04699	1.82480	0.05878	0.13433	1.46656	-0.01387	0.19363	0.96521	0.17198	0.17974	0.94754	0.26931	0.10936	1.45849	0.09719	-0.00897	1.13653	0.14255	0.11570	1.06245	0.25554	0.28302	0.86607	0.17210	0.01805	1.17740	0.25026	0.01316	1.30824	0.23115	0.23233	0.86375	0.28202 
2422	20.175	0.06438	1.83837	-0.06842	-0.03839	1.73422	-0.08608	-0.08679	1.33751	-0.03711	-0.06159	1.54834	-0.02488	-0.05425	1.75579	0.04996	-0.09494	1.45234	0.10241	0.02198	1.50399	0.18880	0.17082	1.34182	-0.01874	0.04715	1.82480	0.05875	0.13439	1.46659	-0.01386	0.19391	0.96558	0.17186	0.18009	0.94789	0.26919	0.10941	1.45847	0.09716	-0.00898	1.13653	0.14252	0.11583	1.06268	0.25547	0.28349	0.86657	0.17198	0.01801	1.17742	0.25023	0.01316	1.30823	0.23112	0.23284	0.86421	0.28192 
2423	20.183	0.06453	1.83838	-0.06845	-0.03829	1.73425	-0.08609	-0.08677	1.33753	-0.03714	-0.06154	1.54837	-0.02492	-0.05410	1.75583	0.04996	-0.09490	1.45236	0.10238	0.02207	1.50397	0.18875	0.17085	1.34180	-0.01878	0.04732	1.82480	0.05873	0.13445	1.46663	-0.01384	0.19420	0.96597	0.17175	0.18044	0.94825	0.26908	0.10945	1.45846	0.09713	-0.00900	1.13653	0.14250	0.11596	1.06290	0.25540	0.28397	0.86709	0.17187	0.01796	1.17744	0.25020	0.01315	1.30823	0.23109	0.23334	0.86468	0.28181 
2424	20.192	0.06469	1.83838	-0.06847	-0.03818	1.73429	-0.08610	-0.08675	1.33755	-0.03717	-0.06148	1.54839	-0.02495	-0.05394	1.75586	0.04997	-0.09485	1.45238	0.10234	0.02215	1.50395	0.18870	0.17087	1.34178	-0.01882	0.04749	1.82481	0.05870	0.13451	1.46667	-0.01383	0.19448	0.96635	0.17163	0.18078	0.94860	0.26897	0.10950	1.45844	0.09711	-0.00903	1.13653	0.14248	0.11608	1.06312	0.25534	0.28446	0.86762	0.17175	0.01791	1.17746	0.25018	0.01314	1.30823	0.23106	0.23385	0.86515	0.28171 
2425	20.200	0.06484	1.83839	-0.06849	-0.03807	1.73431	-0.08611	-0.08673	1.33757	-0.03720	-0.06142	1.54840	-0.02497	-0.05378	1.75590	0.04997	-0.09481	1.45240	0.10231	0.02222	1.50394	0.18866	0.17089	1.34175	-0.01886	0.04766	1.82481	0.05868	0.13457	1.46669	-0.01383	0.19476	0.96675	0.17152	0.18113	0.94896	0.26887	0.10955	1.45843	0.09708	-0.00905	1.13652	0.14245	0.11620	1.06335	0.25529	0.28496	0.86817	0.17163	0.01785	1.17748	0.25015	0.01313	1.30823	0.23103	0.23437	0.86562	0.28160 
2426	20.208	0.06500	1.83838	-0.06852	-0.03796	1.73434	-0.08613	-0.08671	1.33759	-0.03724	-0.06135	1.54842	-0.02500	-0.05362	1.75594	0.04997	-0.09476	1.45243	0.10227	0.02229	1.50393	0.18861	0.17092	1.34173	-0.01889	0.04783	1.82482	0.05865	0.13462	1.46670	-0.01383	0.19504	0.96715	0.17141	0.18148	0.94932	0.26876	0.10960	1.45841	0.09706	-0.00908	1.13652	0.14244	0.11631	1.06357	0.25524	0.28545	0.86874	0.17151	0.01779	1.17750	0.25013	0.01311	1.30823	0.23101	0.23489	0.86611	0.28149 
2427	20.217	0.06516	1.83837	-0.06855	-0.03784	1.73435	-0.08615	-0.08670	1.33761	-0.03727	-0.06128	1.54843	-0.02503	-0.05346	1.75597	0.04997	-0.09472	1.45246	0.10224	0.02236	1.50392	0.18857	0.17094	1.34171	-0.01893	0.04801	1.82482	0.05862	0.13467	1.46671	-0.01385	0.19532	0.96755	0.17130	0.18183	0.94968	0.26866	0.10966	1.45840	0.09703	-0.00911	1.13653	0.14242	0.11643	1.06379	0.25520	0.28594	0.86931	0.17138	0.01774	1.17752	0.25011	0.01310	1.30824	0.23098	0.23542	0.86660	0.28138 
2428	20.225	0.06532	1.83835	-0.06858	-0.03772	1.73436	-0.08617	-0.08668	1.33763	-0.03731	-0.06122	1.54844	-0.02507	-0.05329	1.75601	0.04996	-0.09467	1.45249	0.10220	0.02242	1.50391	0.18853	0.17097	1.34169	-0.01897	0.04818	1.82483	0.05860	0.13472	1.46671	-0.01387	0.19559	0.96795	0.17119	0.18218	0.95004	0.26856	0.10971	1.45838	0.09700	-0.00914	1.13653	0.14240	0.11654	1.06402	0.25517	0.28643	0.86989	0.17124	0.01768	1.17755	0.25010	0.01309	1.30824	0.23096	0.23596	0.86709	0.28127 
2429	20.233	0.06548	1.83832	-0.06862	-0.03760	1.73436	-0.08620	-0.08665	1.33766	-0.03734	-0.06116	1.54847	-0.02511	-0.05313	1.75604	0.04995	-0.09463	1.45252	0.10216	0.02248	1.50391	0.18848	0.17100	1.34167	-0.01901	0.04836	1.82484	0.05857	0.13476	1.46670	-0.01390	0.19587	0.96835	0.17109	0.18252	0.95041	0.26847	0.10976	1.45837	0.09697	-0.00916	1.13654	0.14239	0.11665	1.06424	0.25514	0.28692	0.87050	0.17110	0.01762	1.17758	0.25009	0.01308	1.30825	0.23094	0.23650	0.86757	0.28115 
2430	20.242	0.06564	1.83829	-0.06866	-0.03747	1.73435	-0.08623	-0.08664	1.33768	-0.03737	-0.06109	1.54848	-0.02515	-0.05296	1.75608	0.04993	-0.09458	1.45255	0.10212	0.02254	1.50391	0.18844	0.17103	1.34166	-0.01904	0.04853	1.82484	0.05854	0.13481	1.46670	-0.01393	0.19615	0.96876	0.17100	0.18287	0.95077	0.26838	0.10981	1.45836	0.09694	-0.00919	1.13655	0.14238	0.11677	1.06447	0.25511	0.28741	0.87112	0.17096	0.01757	1.17761	0.25008	0.01307	1.30826	0.23092	0.23704	0.86806	0.28103 
2431	20.250	0.06581	1.83827	-0.06870	-0.03734	1.73436	-0.08627	-0.08662	1.33771	-0.03741	-0.06103	1.54851	-0.02519	-0.05281	1.75612	0.04991	-0.09454	1.45259	0.10208	0.02259	1.50392	0.18840	0.17106	1.34164	-0.01908	0.04869	1.82484	0.05850	0.13485	1.46669	-0.01396	0.19643	0.96917	0.17090	0.18321	0.95114	0.26830	0.10985	1.45835	0.09691	-0.00921	1.13656	0.14237	0.11688	1.06470	0.25509	0.28792	0.87177	0.17082	0.01751	1.17765	0.25008	0.01306	1.30828	0.23091	0.23759	0.86855	0.28091 
2432	20.258	0.06599	1.83826	-0.06874	-0.03721	1.73437	-0.08631	-0.08660	1.33774	-0.03745	-0.06097	1.54853	-0.02524	-0.05265	1.75616	0.04987	-0.09450	1.45262	0.10204	0.02264	1.50392	0.18836	0.17109	1.34163	-0.01911	0.04886	1.82483	0.05847	0.13490	1.46669	-0.01399	0.19671	0.96959	0.17081	0.18355	0.95151	0.26821	0.10989	1.45834	0.09688	-0.00923	1.13657	0.14237	0.11699	1.06494	0.25507	0.28843	0.87243	0.17067	0.01746	1.17769	0.25008	0.01305	1.30830	0.23090	0.23815	0.86905	0.28078 
2433	20.267	0.06617	1.83826	-0.06878	-0.03707	1.73441	-0.08636	-0.08658	1.33776	-0.03748	-0.06091	1.54854	-0.02528	-0.05251	1.75620	0.04983	-0.09446	1.45265	0.10199	0.02268	1.50393	0.18831	0.17112	1.34161	-0.01914	0.04903	1.82483	0.05843	0.13494	1.46668	-0.01402	0.19700	0.97002	0.17071	0.18391	0.95190	0.26813	0.10994	1.45833	0.09685	-0.00926	1.13659	0.14236	0.11711	1.06518	0.25504	0.28896	0.87310	0.17052	0.01740	1.17773	0.25009	0.01304	1.30831	0.23089	0.23872	0.86956	0.28066 
2434	20.275	0.06636	1.83826	-0.06883	-0.03692	1.73445	-0.08641	-0.08656	1.33778	-0.03752	-0.06084	1.54854	-0.02530	-0.05237	1.75625	0.04979	-0.09442	1.45268	0.10194	0.02273	1.50393	0.18827	0.17116	1.34160	-0.01917	0.04920	1.82483	0.05838	0.13499	1.46667	-0.01405	0.19729	0.97046	0.17061	0.18428	0.95231	0.26805	0.10998	1.45832	0.09683	-0.00929	1.13660	0.14237	0.11723	1.06543	0.25501	0.28948	0.87377	0.17036	0.01734	1.17777	0.25009	0.01303	1.30833	0.23088	0.23931	0.87010	0.28054 
2435	20.283	0.06654	1.83824	-0.06888	-0.03678	1.73450	-0.08647	-0.08654	1.33780	-0.03756	-0.06078	1.54854	-0.02533	-0.05223	1.75629	0.04974	-0.09438	1.45271	0.10190	0.02277	1.50393	0.18823	0.17119	1.34159	-0.01920	0.04937	1.82482	0.05834	0.13503	1.46666	-0.01408	0.19758	0.97091	0.17051	0.18467	0.95274	0.26797	0.11002	1.45831	0.09680	-0.00932	1.13660	0.14237	0.11736	1.06570	0.25497	0.29001	0.87445	0.17021	0.01729	1.17781	0.25010	0.01302	1.30834	0.23087	0.23991	0.87066	0.28043 
2436	20.292	0.06672	1.83822	-0.06894	-0.03664	1.73455	-0.08652	-0.08652	1.33782	-0.03760	-0.06071	1.54855	-0.02536	-0.05209	1.75634	0.04968	-0.09434	1.45273	0.10185	0.02281	1.50393	0.18819	0.17122	1.34157	-0.01923	0.04954	1.82482	0.05829	0.13507	1.46665	-0.01411	0.19788	0.97137	0.17040	0.18508	0.95318	0.26789	0.11005	1.45829	0.09677	-0.00936	1.13661	0.14238	0.11750	1.06597	0.25493	0.29053	0.87512	0.17006	0.01723	1.17785	0.25011	0.01300	1.30835	0.23087	0.24053	0.87125	0.28033 
2437	20.300	0.06691	1.83819	-0.06900	-0.03651	1.73460	-0.08658	-0.08650	1.33784	-0.03765	-0.06066	1.54856	-0.02541	-0.05195	1.75639	0.04963	-0.09431	1.45275	0.10181	0.02285	1.50393	0.18815	0.17125	1.34156	-0.01925	0.04972	1.82482	0.05824	0.13511	1.46663	-0.01414	0.19819	0.97185	0.17029	0.18551	0.95365	0.26781	0.11009	1.45828	0.09675	-0.00941	1.13661	0.14240	0.11764	1.06626	0.25489	0.29105	0.87580	0.16991	0.01717	1.17789	0.25012	0.01299	1.30836	0.23086	0.24116	0.87187	0.28023 
2438	20.308	0.06709	1.83817	-0.06906	-0.03637	1.73464	-0.08663	-0.08649	1.33786	-0.03769	-0.06061	1.54858	-0.02546	-0.05181	1.75644	0.04958	-0.09427	1.45278	0.10176	0.02289	1.50392	0.18811	0.17128	1.34156	-0.01928	0.04991	1.82482	0.05819	0.13515	1.46662	-0.01416	0.19850	0.97233	0.17017	0.18594	0.95413	0.26773	0.11012	1.45826	0.09672	-0.00946	1.13660	0.14242	0.11778	1.06655	0.25484	0.29159	0.87650	0.16977	0.01712	1.17793	0.25014	0.01296	1.30837	0.23086	0.24180	0.87250	0.28015 
